<mxfile host="65bd71144e">
    <diagram id="xcMXIU8UT6y1cH5g0Dqb" name="Page-1">
        <mxGraphModel dx="2620" dy="1887" grid="1" gridSize="10" guides="1" tooltips="1" connect="1" arrows="1" fold="1" page="1" pageScale="1" pageWidth="850" pageHeight="1100" math="0" shadow="0">
            <root>
                <mxCell id="0"/>
                <mxCell id="1" parent="0"/>
                <mxCell id="4" style="edgeStyle=none;html=1;exitX=0.5;exitY=1;exitDx=0;exitDy=0;entryX=0.5;entryY=0;entryDx=0;entryDy=0;fontColor=#000000;" parent="1" source="2" target="75" edge="1">
                    <mxGeometry relative="1" as="geometry">
                        <mxPoint x="75.80000000000018" y="389.1199999999999" as="targetPoint"/>
                    </mxGeometry>
                </mxCell>
                <mxCell id="2" value="&lt;font color=&quot;#000000&quot;&gt;Travail à la ferme&lt;br&gt;et entend un garde qui cri&lt;br&gt;&lt;/font&gt;" style="rounded=1;whiteSpace=wrap;html=1;fillColor=#f9f7ed;strokeColor=#36393d;" parent="1" vertex="1">
                    <mxGeometry x="-5" y="240" width="160" height="80" as="geometry"/>
                </mxCell>
                <mxCell id="14" value="&lt;div style=&quot;margin: 0px; padding: 0px; user-select: text; -webkit-user-drag: none; -webkit-tap-highlight-color: transparent; overflow: visible; cursor: text; clear: both; position: relative; direction: ltr; font-family: Calibri, sans-serif; font-size: 14.6667px; text-align: left; background-color: rgb(255, 255, 255);&quot; class=&quot;OutlineElement Ltr SCXO134282911 BCX9&quot;&gt;&lt;p style=&quot;margin: 0px; padding: 0px; user-select: text; -webkit-user-drag: none; -webkit-tap-highlight-color: transparent; overflow-wrap: break-word; vertical-align: baseline; font-kerning: none; background-color: transparent;&quot; lang=&quot;FR-CA&quot; class=&quot;Paragraph SCXO134282911 BCX9&quot;&gt;&lt;span style=&quot;margin: 0px; padding: 0px; user-select: text; -webkit-user-drag: none; -webkit-tap-highlight-color: transparent; font-weight: bold; font-size: 11pt; line-height: 19px; font-variant-ligatures: none !important;&quot; lang=&quot;EN-US&quot; class=&quot;TextRun SCXO134282911 BCX9&quot; data-contrast=&quot;auto&quot;&gt;Genre&amp;nbsp;&lt;/span&gt;&lt;span style=&quot;margin: 0px; padding: 0px; user-select: text; -webkit-user-drag: none; -webkit-tap-highlight-color: transparent; font-size: 11pt; line-height: 19px; font-variant-ligatures: none !important;&quot; lang=&quot;EN-US&quot; class=&quot;TextRun SCXO134282911 BCX9&quot; data-contrast=&quot;auto&quot;&gt;: Meurtre / vengeance&lt;/span&gt;&lt;span style=&quot;margin: 0px; padding: 0px; user-select: text; -webkit-user-drag: none; -webkit-tap-highlight-color: transparent; font-size: 11pt; line-height: 19px; font-family: WordVisiCarriageReturn_MSFontService, Calibri, sans-serif;&quot; class=&quot;LineBreakBlob BlobObject DragDrop SCXO134282911 BCX9&quot;&gt;&lt;br style=&quot;margin: 0px; padding: 0px; user-select: text; -webkit-user-drag: none; -webkit-tap-highlight-color: transparent;&quot; class=&quot;SCXO134282911 BCX9&quot;&gt;&lt;/span&gt;&lt;span style=&quot;margin: 0px; padding: 0px; user-select: text; -webkit-user-drag: none; -webkit-tap-highlight-color: transparent; font-weight: bold; font-size: 11pt; line-height: 19px; font-variant-ligatures: none !important;&quot; lang=&quot;EN-US&quot; class=&quot;TextRun SCXO134282911 BCX9&quot; data-contrast=&quot;auto&quot;&gt;Inspiration&amp;nbsp;&lt;/span&gt;&lt;span style=&quot;margin: 0px; padding: 0px; user-select: text; -webkit-user-drag: none; -webkit-tap-highlight-color: transparent; font-size: 11pt; line-height: 19px; font-variant-ligatures: none !important;&quot; lang=&quot;EN-US&quot; class=&quot;TextRun SCXO134282911 BCX9&quot; data-contrast=&quot;auto&quot;&gt;: Vinland Saga&lt;/span&gt;&lt;span style=&quot;margin: 0px; padding: 0px; user-select: text; -webkit-user-drag: none; -webkit-tap-highlight-color: transparent; font-size: 11pt; line-height: 19px; font-family: WordVisiCarriageReturn_MSFontService, Calibri, sans-serif;&quot; class=&quot;LineBreakBlob BlobObject DragDrop SCXO134282911 BCX9&quot;&gt;&lt;br style=&quot;margin: 0px; padding: 0px; user-select: text; -webkit-user-drag: none; -webkit-tap-highlight-color: transparent;&quot; class=&quot;SCXO134282911 BCX9&quot;&gt;&lt;/span&gt;&lt;span style=&quot;margin: 0px; padding: 0px; user-select: text; -webkit-user-drag: none; -webkit-tap-highlight-color: transparent; font-weight: bold; font-size: 11pt; line-height: 19px; font-variant-ligatures: none !important;&quot; lang=&quot;EN-US&quot; class=&quot;TextRun SCXO134282911 BCX9&quot; data-contrast=&quot;auto&quot;&gt;Nom&amp;nbsp;&lt;/span&gt;&lt;span style=&quot;margin: 0px; padding: 0px; user-select: text; -webkit-user-drag: none; -webkit-tap-highlight-color: transparent; font-size: 11pt; line-height: 19px; font-variant-ligatures: none !important;&quot; lang=&quot;EN-US&quot; class=&quot;TextRun SCXO134282911 BCX9&quot; data-contrast=&quot;auto&quot;&gt;: Meurtre à la ferme&lt;/span&gt;&lt;/p&gt;&lt;/div&gt;&lt;div style=&quot;margin: 0px; padding: 0px; user-select: text; -webkit-user-drag: none; -webkit-tap-highlight-color: transparent; overflow: visible; cursor: text; clear: both; position: relative; direction: ltr; text-align: left; background-color: rgb(255, 255, 255);&quot; class=&quot;OutlineElement Ltr SCXO134282911 BCX9&quot;&gt;&lt;p style=&quot;font-family: Calibri, sans-serif; font-size: 14.6667px; margin: 0px; padding: 0px; user-select: text; -webkit-user-drag: none; -webkit-tap-highlight-color: transparent; overflow-wrap: break-word; vertical-align: baseline; font-kerning: none; background-color: transparent;&quot; lang=&quot;FR-CA&quot; class=&quot;Paragraph SCXO134282911 BCX9&quot;&gt;&lt;span style=&quot;margin: 0px; padding: 0px; user-select: text; -webkit-user-drag: none; -webkit-tap-highlight-color: transparent; font-weight: bold; font-size: 11pt; line-height: 19px; font-variant-ligatures: none !important;&quot; lang=&quot;EN-US&quot; class=&quot;TextRun SCXO134282911 BCX9&quot; data-contrast=&quot;auto&quot;&gt;Palette&amp;nbsp;&lt;/span&gt;&lt;span style=&quot;margin: 0px; padding: 0px; user-select: text; -webkit-user-drag: none; -webkit-tap-highlight-color: transparent; font-size: 11pt; line-height: 19px; font-variant-ligatures: none !important;&quot; lang=&quot;EN-US&quot; class=&quot;TextRun SCXO134282911 BCX9&quot; data-contrast=&quot;auto&quot;&gt;:&amp;nbsp;&lt;/span&gt;&lt;span style=&quot;margin: 0px; padding: 0px; user-select: text; -webkit-user-drag: none; -webkit-tap-highlight-color: transparent; font-size: 11pt; line-height: 19px;&quot; class=&quot;EOP SCXO134282911 BCX9&quot;&gt;&amp;nbsp;&lt;/span&gt;&lt;/p&gt;&lt;ul style=&quot;margin: 0px; padding: 0px; user-select: text; -webkit-user-drag: none; -webkit-tap-highlight-color: transparent; overflow: visible; cursor: text;&quot; role=&quot;list&quot; class=&quot;BulletListStyle1 SCXO134282911 BCX9&quot;&gt;&lt;li style=&quot;margin: 0px 0px 0px 24px; padding-top: 0px; padding-bottom: 0px; user-select: text; -webkit-user-drag: none; -webkit-tap-highlight-color: transparent; overflow: visible; cursor: text; clear: both; position: relative; direction: ltr; display: block; vertical-align: baseline;&quot; class=&quot;OutlineElement Ltr SCXO134282911 BCX9&quot; data-aria-level=&quot;2&quot; role=&quot;listitem&quot; data-aria-posinset=&quot;1&quot;&gt;&lt;p style=&quot;margin: 0px; padding: 0px; user-select: text; -webkit-user-drag: none; -webkit-tap-highlight-color: transparent; overflow-wrap: break-word; vertical-align: baseline; font-kerning: none; background-color: transparent;&quot; lang=&quot;FR-CA&quot; class=&quot;Paragraph SCXO134282911 BCX9&quot;&gt;&lt;span style=&quot;font-family: Calibri, sans-serif; font-size: 11pt; margin: 0px; padding: 0px; user-select: text; -webkit-user-drag: none; -webkit-tap-highlight-color: transparent; line-height: 19px; font-variant-ligatures: none !important;&quot; lang=&quot;EN-US&quot; class=&quot;TextRun SCXO134282911 BCX9&quot; data-contrast=&quot;auto&quot;&gt;Couleur de fond du site : #&lt;/span&gt;&lt;font face=&quot;Calibri, sans-serif&quot;&gt;&lt;span style=&quot;font-size: 14.6667px; font-variant-ligatures: none;&quot;&gt;ADC178&lt;/span&gt;&lt;/font&gt;&lt;/p&gt;&lt;/li&gt;&lt;li style=&quot;margin: 0px 0px 0px 24px; padding-top: 0px; padding-bottom: 0px; user-select: text; -webkit-user-drag: none; -webkit-tap-highlight-color: transparent; overflow: visible; cursor: text; clear: both; position: relative; direction: ltr; display: block; vertical-align: baseline;&quot; class=&quot;OutlineElement Ltr SCXO134282911 BCX9&quot; data-aria-level=&quot;2&quot; role=&quot;listitem&quot; data-aria-posinset=&quot;2&quot;&gt;&lt;p style=&quot;margin: 0px; padding: 0px; user-select: text; -webkit-user-drag: none; -webkit-tap-highlight-color: transparent; overflow-wrap: break-word; vertical-align: baseline; font-kerning: none; background-color: transparent;&quot; lang=&quot;FR-CA&quot; class=&quot;Paragraph SCXO134282911 BCX9&quot;&gt;&lt;span style=&quot;font-family: Calibri, sans-serif; font-size: 11pt; margin: 0px; padding: 0px; user-select: text; -webkit-user-drag: none; -webkit-tap-highlight-color: transparent; line-height: 19px; font-variant-ligatures: none !important;&quot; lang=&quot;EN-US&quot; class=&quot;TextRun SCXO134282911 BCX9&quot; data-contrast=&quot;auto&quot;&gt;&lt;span style=&quot;margin: 0px; padding: 0px; user-select: text; -webkit-user-drag: none; -webkit-tap-highlight-color: transparent; background-color: inherit;&quot; class=&quot;NormalTextRun SCXO134282911 BCX9&quot;&gt;Couleur de fond du&amp;nbsp;&lt;/span&gt;&lt;span style=&quot;margin: 0px; padding: 0px; user-select: text; -webkit-user-drag: none; -webkit-tap-highlight-color: transparent; background-repeat: repeat-x; background-position: left bottom; background-image: url(&amp;quot;data:image/gif;base64,R0lGODlhBQAEAJECAP////8AAAAAAAAAACH5BAEAAAIALAAAAAAFAAQAAAIIlGAXCCHrTCgAOw==&amp;quot;); border-bottom: 1px solid transparent; background-color: inherit;&quot; class=&quot;SpellingError SCXO134282911 BCX9&quot;&gt;contenu&lt;/span&gt;&lt;span style=&quot;margin: 0px; padding: 0px; user-select: text; -webkit-user-drag: none; -webkit-tap-highlight-color: transparent; background-color: inherit;&quot; class=&quot;NormalTextRun SCXO134282911 BCX9&quot;&gt;&amp;nbsp;: #&lt;/span&gt;&lt;/span&gt;&lt;font face=&quot;Calibri, sans-serif&quot;&gt;&lt;span style=&quot;font-size: 14.6667px; font-variant-ligatures: none;&quot;&gt;DDE5B6&lt;/span&gt;&lt;/font&gt;&lt;/p&gt;&lt;/li&gt;&lt;li style=&quot;font-family: Calibri, sans-serif; font-size: 11pt; margin: 0px 0px 0px 24px; padding-top: 0px; padding-bottom: 0px; user-select: text; -webkit-user-drag: none; -webkit-tap-highlight-color: transparent; overflow: visible; cursor: text; clear: both; position: relative; direction: ltr; display: block; vertical-align: baseline;&quot; class=&quot;OutlineElement Ltr SCXO134282911 BCX9&quot; data-aria-level=&quot;2&quot; role=&quot;listitem&quot; data-aria-posinset=&quot;3&quot;&gt;&lt;p style=&quot;margin: 0px; padding: 0px; user-select: text; -webkit-user-drag: none; -webkit-tap-highlight-color: transparent; overflow-wrap: break-word; vertical-align: baseline; font-kerning: none; background-color: transparent;&quot; lang=&quot;FR-CA&quot; class=&quot;Paragraph SCXO134282911 BCX9&quot;&gt;&lt;span style=&quot;margin: 0px; padding: 0px; user-select: text; -webkit-user-drag: none; -webkit-tap-highlight-color: transparent; font-size: 11pt; line-height: 19px; font-variant-ligatures: none !important;&quot; lang=&quot;EN-US&quot; class=&quot;TextRun SCXO134282911 BCX9&quot; data-contrast=&quot;auto&quot;&gt;Couleur de la police : #6C584C&lt;/span&gt;&lt;span style=&quot;margin: 0px; padding: 0px; user-select: text; -webkit-user-drag: none; -webkit-tap-highlight-color: transparent; font-size: 11pt; line-height: 19px;&quot; class=&quot;EOP SCXO134282911 BCX9&quot;&gt;&amp;nbsp;&lt;/span&gt;&lt;/p&gt;&lt;/li&gt;&lt;li style=&quot;margin: 0px 0px 0px 24px; padding-top: 0px; padding-bottom: 0px; user-select: text; -webkit-user-drag: none; -webkit-tap-highlight-color: transparent; overflow: visible; cursor: text; clear: both; position: relative; direction: ltr; display: block; vertical-align: baseline;&quot; class=&quot;OutlineElement Ltr SCXO134282911 BCX9&quot; data-aria-level=&quot;2&quot; role=&quot;listitem&quot; data-aria-posinset=&quot;4&quot;&gt;&lt;p style=&quot;margin: 0px; padding: 0px; user-select: text; -webkit-user-drag: none; -webkit-tap-highlight-color: transparent; overflow-wrap: break-word; vertical-align: baseline; font-kerning: none; background-color: transparent;&quot; lang=&quot;FR-CA&quot; class=&quot;Paragraph SCXO134282911 BCX9&quot;&gt;&lt;span style=&quot;font-family: Calibri, sans-serif; font-size: 11pt; margin: 0px; padding: 0px; user-select: text; -webkit-user-drag: none; -webkit-tap-highlight-color: transparent; line-height: 19px; font-variant-ligatures: none !important;&quot; lang=&quot;EN-US&quot; class=&quot;TextRun SCXO134282911 BCX9&quot; data-contrast=&quot;auto&quot;&gt;Couleur de fond des boutons : #&lt;/span&gt;&lt;font face=&quot;Calibri, sans-serif&quot;&gt;&lt;span style=&quot;font-size: 14.6667px; font-variant-ligatures: none;&quot;&gt;F0EAD2&lt;/span&gt;&lt;/font&gt;&lt;/p&gt;&lt;/li&gt;&lt;li style=&quot;font-family: Calibri, sans-serif; font-size: 11pt; margin: 0px 0px 0px 24px; padding-top: 0px; padding-bottom: 0px; user-select: text; -webkit-user-drag: none; -webkit-tap-highlight-color: transparent; overflow: visible; cursor: text; clear: both; position: relative; direction: ltr; display: block; vertical-align: baseline;&quot; class=&quot;OutlineElement Ltr SCXO134282911 BCX9&quot; data-aria-level=&quot;2&quot; role=&quot;listitem&quot; data-aria-posinset=&quot;5&quot;&gt;&lt;p style=&quot;margin: 0px; padding: 0px; user-select: text; -webkit-user-drag: none; -webkit-tap-highlight-color: transparent; overflow-wrap: break-word; vertical-align: baseline; font-kerning: none; background-color: transparent;&quot; lang=&quot;FR-CA&quot; class=&quot;Paragraph SCXO134282911 BCX9&quot;&gt;&lt;span style=&quot;margin: 0px; padding: 0px; user-select: text; -webkit-user-drag: none; -webkit-tap-highlight-color: transparent; font-size: 11pt; line-height: 19px; font-variant-ligatures: none !important;&quot; lang=&quot;EN-US&quot; class=&quot;TextRun SCXO134282911 BCX9&quot; data-contrast=&quot;auto&quot;&gt;&lt;span style=&quot;margin: 0px; padding: 0px; user-select: text; -webkit-user-drag: none; -webkit-tap-highlight-color: transparent; background-color: inherit;&quot; class=&quot;NormalTextRun SCXO134282911 BCX9&quot;&gt;Couleur de fond des boutons&amp;nbsp;&lt;/span&gt;&lt;span style=&quot;margin: 0px; padding: 0px; user-select: text; -webkit-user-drag: none; -webkit-tap-highlight-color: transparent; background-repeat: repeat-x; background-position: left bottom; background-image: url(&amp;quot;data:image/gif;base64,R0lGODlhBQAEAJECAP////8AAAAAAAAAACH5BAEAAAIALAAAAAAFAAQAAAIIlGAXCCHrTCgAOw==&amp;quot;); border-bottom: 1px solid transparent; background-color: inherit;&quot; class=&quot;SpellingError SCXO134282911 BCX9&quot;&gt;en&lt;/span&gt;&lt;span style=&quot;margin: 0px; padding: 0px; user-select: text; -webkit-user-drag: none; -webkit-tap-highlight-color: transparent; background-color: inherit;&quot; class=&quot;NormalTextRun SCXO134282911 BCX9&quot;&gt;&amp;nbsp;&lt;/span&gt;&lt;/span&gt;&lt;span style=&quot;margin: 0px; padding: 0px; user-select: text; -webkit-user-drag: none; -webkit-tap-highlight-color: transparent; font-style: italic; font-size: 11pt; line-height: 19px; font-variant-ligatures: none !important;&quot; lang=&quot;EN-US&quot; class=&quot;TextRun SCXO134282911 BCX9&quot; data-contrast=&quot;auto&quot;&gt;hover&amp;nbsp;&lt;/span&gt;&lt;span style=&quot;margin: 0px; padding: 0px; user-select: text; -webkit-user-drag: none; -webkit-tap-highlight-color: transparent; font-size: 11pt; line-height: 19px; font-variant-ligatures: none !important;&quot; lang=&quot;EN-US&quot; class=&quot;TextRun SCXO134282911 BCX9&quot; data-contrast=&quot;auto&quot;&gt;: #A98467&lt;/span&gt;&lt;span style=&quot;margin: 0px; padding: 0px; user-select: text; -webkit-user-drag: none; -webkit-tap-highlight-color: transparent; font-size: 11pt; line-height: 19px;&quot; class=&quot;EOP SCXO134282911 BCX9&quot;&gt;&amp;nbsp;&lt;/span&gt;&lt;/p&gt;&lt;/li&gt;&lt;li style=&quot;font-family: Calibri, sans-serif; font-size: 11pt; margin: 0px 0px 0px 24px; padding-top: 0px; padding-bottom: 0px; user-select: text; -webkit-user-drag: none; -webkit-tap-highlight-color: transparent; overflow: visible; cursor: text; clear: both; position: relative; direction: ltr; display: block; vertical-align: baseline;&quot; class=&quot;OutlineElement Ltr SCXO134282911 BCX9&quot; data-aria-level=&quot;2&quot; role=&quot;listitem&quot; data-aria-posinset=&quot;6&quot;&gt;&lt;p style=&quot;margin: 0px; padding: 0px; user-select: text; -webkit-user-drag: none; -webkit-tap-highlight-color: transparent; overflow-wrap: break-word; vertical-align: baseline; font-kerning: none; background-color: transparent;&quot; lang=&quot;FR-CA&quot; class=&quot;Paragraph SCXO134282911 BCX9&quot;&gt;&lt;span style=&quot;margin: 0px; padding: 0px; user-select: text; -webkit-user-drag: none; -webkit-tap-highlight-color: transparent; font-size: 11pt; line-height: 19px; font-variant-ligatures: none !important;&quot; lang=&quot;EN-US&quot; class=&quot;TextRun SCXO134282911 BCX9&quot; data-contrast=&quot;auto&quot;&gt;Couleur de la police des boutons : &lt;/span&gt;&lt;span style=&quot;font-size: 14.6667px; font-variant-ligatures: none;&quot;&gt;#6C584C&lt;/span&gt;&lt;/p&gt;&lt;/li&gt;&lt;li style=&quot;font-family: Calibri, sans-serif; font-size: 11pt; margin: 0px 0px 0px 24px; padding-top: 0px; padding-bottom: 0px; user-select: text; -webkit-user-drag: none; -webkit-tap-highlight-color: transparent; overflow: visible; cursor: text; clear: both; position: relative; direction: ltr; display: block; vertical-align: baseline;&quot; class=&quot;OutlineElement Ltr SCXO134282911 BCX9&quot; data-aria-level=&quot;2&quot; role=&quot;listitem&quot; data-aria-posinset=&quot;7&quot;&gt;&lt;p style=&quot;margin: 0px; padding: 0px; user-select: text; -webkit-user-drag: none; -webkit-tap-highlight-color: transparent; overflow-wrap: break-word; vertical-align: baseline; font-kerning: none; background-color: transparent;&quot; lang=&quot;FR-CA&quot; class=&quot;Paragraph SCXO134282911 BCX9&quot;&gt;&lt;span style=&quot;margin: 0px; padding: 0px; user-select: text; -webkit-user-drag: none; -webkit-tap-highlight-color: transparent; font-size: 11pt; line-height: 19px; font-variant-ligatures: none !important;&quot; lang=&quot;EN-US&quot; class=&quot;TextRun SCXO134282911 BCX9&quot; data-contrast=&quot;auto&quot;&gt;Couleur de la police des boutons&amp;nbsp;&lt;/span&gt;&lt;span style=&quot;margin: 0px; padding: 0px; user-select: text; -webkit-user-drag: none; -webkit-tap-highlight-color: transparent; font-size: 11pt; line-height: 19px; font-variant-ligatures: none !important;&quot; lang=&quot;EN-US&quot; class=&quot;TextRun SCXO134282911 BCX9&quot; data-contrast=&quot;auto&quot;&gt;&lt;span style=&quot;margin: 0px; padding: 0px; user-select: text; -webkit-user-drag: none; -webkit-tap-highlight-color: transparent; background-repeat: repeat-x; background-position: left bottom; background-image: url(&amp;quot;data:image/gif;base64,R0lGODlhBQAEAJECAP////8AAAAAAAAAACH5BAEAAAIALAAAAAAFAAQAAAIIlGAXCCHrTCgAOw==&amp;quot;); border-bottom: 1px solid transparent; background-color: inherit;&quot; class=&quot;SpellingError SCXO134282911 BCX9&quot;&gt;en&lt;/span&gt;&lt;span style=&quot;margin: 0px; padding: 0px; user-select: text; -webkit-user-drag: none; -webkit-tap-highlight-color: transparent; background-color: inherit;&quot; class=&quot;NormalTextRun SCXO134282911 BCX9&quot;&gt;&amp;nbsp;&lt;/span&gt;&lt;/span&gt;&lt;span style=&quot;margin: 0px; padding: 0px; user-select: text; -webkit-user-drag: none; -webkit-tap-highlight-color: transparent; font-style: italic; font-size: 11pt; line-height: 19px; font-variant-ligatures: none !important;&quot; lang=&quot;EN-US&quot; class=&quot;TextRun SCXO134282911 BCX9&quot; data-contrast=&quot;auto&quot;&gt;hover&lt;/span&gt;&lt;span style=&quot;margin: 0px; padding: 0px; user-select: text; -webkit-user-drag: none; -webkit-tap-highlight-color: transparent; font-size: 11pt; line-height: 19px; font-variant-ligatures: none !important;&quot; lang=&quot;EN-US&quot; class=&quot;TextRun SCXO134282911 BCX9&quot; data-contrast=&quot;auto&quot;&gt;: &lt;/span&gt;&lt;span style=&quot;font-size: 14.6667px; font-variant-ligatures: none;&quot;&gt;#6C584C&lt;/span&gt;&lt;/p&gt;&lt;/li&gt;&lt;/ul&gt;&lt;/div&gt;" style="text;html=1;align=center;verticalAlign=middle;whiteSpace=wrap;rounded=0;fontColor=#000000;" parent="1" vertex="1">
                    <mxGeometry width="330" height="220" as="geometry"/>
                </mxCell>
                <mxCell id="46" style="edgeStyle=none;html=1;exitX=1;exitY=0.5;exitDx=0;exitDy=0;entryX=0;entryY=0.75;entryDx=0;entryDy=0;fontColor=#FFFFFF;" parent="1" source="49" target="45" edge="1">
                    <mxGeometry relative="1" as="geometry"/>
                </mxCell>
                <mxCell id="48" value="droite" style="edgeLabel;html=1;align=center;verticalAlign=middle;resizable=0;points=[];fontColor=#FFFFFF;" parent="46" vertex="1" connectable="0">
                    <mxGeometry x="-0.1855" y="-1" relative="1" as="geometry">
                        <mxPoint as="offset"/>
                    </mxGeometry>
                </mxCell>
                <mxCell id="50" style="edgeStyle=none;html=1;exitX=0.5;exitY=1;exitDx=0;exitDy=0;fontColor=#FFFFFF;" parent="1" source="20" target="49" edge="1">
                    <mxGeometry relative="1" as="geometry"/>
                </mxCell>
                <mxCell id="20" value="&lt;font color=&quot;#000000&quot;&gt;Trouve un médaillon&lt;br&gt;d'un groupe de meurtrier connu dans la région et décide d'aller leur rendre visite.&lt;br&gt;&lt;/font&gt;" style="rounded=1;whiteSpace=wrap;html=1;fillColor=#f9f7ed;strokeColor=#36393d;" parent="1" vertex="1">
                    <mxGeometry x="-5" y="580" width="160" height="80" as="geometry"/>
                </mxCell>
                <mxCell id="34" style="edgeStyle=none;html=1;exitX=0.5;exitY=1;exitDx=0;exitDy=0;fontColor=#FFFFFF;" parent="1" source="30" target="33" edge="1">
                    <mxGeometry relative="1" as="geometry"/>
                </mxCell>
                <mxCell id="30" value="&lt;font color=&quot;#000000&quot;&gt;rencontre un ami&lt;br&gt;en chemin&amp;nbsp;&lt;br&gt;&lt;/font&gt;" style="rounded=1;whiteSpace=wrap;html=1;fillColor=#f9f7ed;strokeColor=#36393d;" parent="1" vertex="1">
                    <mxGeometry x="-5" y="910" width="160" height="80" as="geometry"/>
                </mxCell>
                <mxCell id="38" style="edgeStyle=none;html=1;exitX=0.5;exitY=1;exitDx=0;exitDy=0;entryX=0.5;entryY=0;entryDx=0;entryDy=0;fontColor=#FFFFFF;" parent="1" source="33" target="37" edge="1">
                    <mxGeometry relative="1" as="geometry"/>
                </mxCell>
                <mxCell id="40" value="oui" style="edgeLabel;html=1;align=center;verticalAlign=middle;resizable=0;points=[];fontColor=#FFFFFF;" parent="38" vertex="1" connectable="0">
                    <mxGeometry x="-0.3099" relative="1" as="geometry">
                        <mxPoint as="offset"/>
                    </mxGeometry>
                </mxCell>
                <mxCell id="42" style="edgeStyle=none;html=1;exitX=1;exitY=0.5;exitDx=0;exitDy=0;entryX=0.5;entryY=0;entryDx=0;entryDy=0;fontColor=#FFFFFF;" parent="1" source="33" target="36" edge="1">
                    <mxGeometry relative="1" as="geometry">
                        <Array as="points">
                            <mxPoint x="195" y="1130"/>
                            <mxPoint x="195" y="1380"/>
                            <mxPoint x="75" y="1380"/>
                        </Array>
                    </mxGeometry>
                </mxCell>
                <mxCell id="44" value="non" style="edgeLabel;html=1;align=center;verticalAlign=middle;resizable=0;points=[];fontColor=#FFFFFF;" parent="42" vertex="1" connectable="0">
                    <mxGeometry x="-0.453" relative="1" as="geometry">
                        <mxPoint as="offset"/>
                    </mxGeometry>
                </mxCell>
                <mxCell id="33" value="&lt;font color=&quot;#000000&quot;&gt;proposition de&lt;br&gt;venir avec vous&lt;/font&gt;" style="rhombus;whiteSpace=wrap;html=1;fillColor=#1ba1e2;strokeColor=#006EAF;rounded=1;fontColor=#ffffff;" parent="1" vertex="1">
                    <mxGeometry x="-5" y="1050" width="160" height="160" as="geometry"/>
                </mxCell>
                <mxCell id="54" style="edgeStyle=none;html=1;exitX=0.5;exitY=1;exitDx=0;exitDy=0;fontColor=#FFFFFF;" parent="1" source="36" target="53" edge="1">
                    <mxGeometry relative="1" as="geometry"/>
                </mxCell>
                <mxCell id="36" value="&lt;font color=&quot;#000000&quot;&gt;continuer d'avancer sur le chemin&lt;br&gt;&lt;/font&gt;" style="rounded=1;whiteSpace=wrap;html=1;fillColor=#f9f7ed;strokeColor=#36393d;" parent="1" vertex="1">
                    <mxGeometry x="-5" y="1410" width="160" height="80" as="geometry"/>
                </mxCell>
                <mxCell id="43" style="edgeStyle=none;html=1;exitX=0.5;exitY=1;exitDx=0;exitDy=0;entryX=0.5;entryY=0;entryDx=0;entryDy=0;fontColor=#FFFFFF;" parent="1" source="37" target="36" edge="1">
                    <mxGeometry relative="1" as="geometry"/>
                </mxCell>
                <mxCell id="37" value="&lt;font color=&quot;#000000&quot;&gt;il ne vient pas, mais vous donne une &lt;u&gt;armure robuste&lt;/u&gt;&lt;br&gt;&lt;/font&gt;" style="rounded=1;whiteSpace=wrap;html=1;fillColor=#fa6800;strokeColor=#C73500;fontColor=#000000;" parent="1" vertex="1">
                    <mxGeometry x="-5" y="1270" width="160" height="80" as="geometry"/>
                </mxCell>
                <mxCell id="47" style="edgeStyle=none;html=1;exitX=0.5;exitY=0;exitDx=0;exitDy=0;entryX=1;entryY=0.5;entryDx=0;entryDy=0;fontColor=#FFFFFF;" parent="1" source="45" target="2" edge="1">
                    <mxGeometry relative="1" as="geometry">
                        <Array as="points">
                            <mxPoint x="480" y="280"/>
                        </Array>
                    </mxGeometry>
                </mxCell>
                <mxCell id="45" value="&lt;font color=&quot;#000000&quot;&gt;un arbre tombe sur vous&amp;nbsp;&lt;br&gt;et vous mourrez&lt;br&gt;&lt;/font&gt;" style="rounded=1;whiteSpace=wrap;html=1;fillColor=#a20025;strokeColor=#6F0000;fontColor=#ffffff;" parent="1" vertex="1">
                    <mxGeometry x="400" y="730" width="160" height="80" as="geometry"/>
                </mxCell>
                <mxCell id="51" style="edgeStyle=none;html=1;entryX=0.5;entryY=0;entryDx=0;entryDy=0;fontColor=#FFFFFF;" parent="1" source="49" target="30" edge="1">
                    <mxGeometry relative="1" as="geometry"/>
                </mxCell>
                <mxCell id="52" value="gauche" style="edgeLabel;html=1;align=center;verticalAlign=middle;resizable=0;points=[];fontColor=#FFFFFF;" parent="51" vertex="1" connectable="0">
                    <mxGeometry x="-0.2462" y="1" relative="1" as="geometry">
                        <mxPoint as="offset"/>
                    </mxGeometry>
                </mxCell>
                <mxCell id="49" value="&lt;font color=&quot;#000000&quot;&gt;quel chemin &lt;br&gt;prendre&lt;/font&gt;" style="rhombus;whiteSpace=wrap;html=1;fillColor=#1ba1e2;strokeColor=#006EAF;rounded=1;fontColor=#ffffff;" parent="1" vertex="1">
                    <mxGeometry x="-5" y="710" width="160" height="160" as="geometry"/>
                </mxCell>
                <mxCell id="56" style="edgeStyle=none;html=1;exitX=0.5;exitY=1;exitDx=0;exitDy=0;fontColor=#FFFFFF;entryX=0.5;entryY=0;entryDx=0;entryDy=0;" parent="1" source="53" target="55" edge="1">
                    <mxGeometry relative="1" as="geometry">
                        <mxPoint x="75" y="1700" as="targetPoint"/>
                    </mxGeometry>
                </mxCell>
                <mxCell id="53" value="&lt;font color=&quot;#000000&quot;&gt;arriver au camp du groupe un gars vraiment musclé vous voit et décide qu'il veut se battre avec vous parceque il voit que vous avez le médaillon de son ami, il pense que vous l'avez tué&lt;br&gt;&lt;/font&gt;" style="rounded=1;whiteSpace=wrap;html=1;fillColor=#f9f7ed;strokeColor=#36393d;" parent="1" vertex="1">
                    <mxGeometry x="-25" y="1540" width="200" height="100" as="geometry"/>
                </mxCell>
                <mxCell id="58" style="edgeStyle=none;html=1;exitX=1;exitY=0.5;exitDx=0;exitDy=0;entryX=0;entryY=0.5;entryDx=0;entryDy=0;fontColor=#FFFFFF;" parent="1" source="55" target="57" edge="1">
                    <mxGeometry relative="1" as="geometry"/>
                </mxCell>
                <mxCell id="59" value="fuite" style="edgeLabel;html=1;align=center;verticalAlign=middle;resizable=0;points=[];fontColor=#FFFFFF;" parent="58" vertex="1" connectable="0">
                    <mxGeometry x="-0.2504" y="-1" relative="1" as="geometry">
                        <mxPoint as="offset"/>
                    </mxGeometry>
                </mxCell>
                <mxCell id="61" style="edgeStyle=none;html=1;exitX=0.5;exitY=1;exitDx=0;exitDy=0;entryX=0.5;entryY=0;entryDx=0;entryDy=0;fontColor=#FFFFFF;" parent="1" source="55" target="60" edge="1">
                    <mxGeometry relative="1" as="geometry"/>
                </mxCell>
                <mxCell id="62" value="combat" style="edgeLabel;html=1;align=center;verticalAlign=middle;resizable=0;points=[];fontColor=#FFFFFF;" parent="61" vertex="1" connectable="0">
                    <mxGeometry x="-0.28" relative="1" as="geometry">
                        <mxPoint as="offset"/>
                    </mxGeometry>
                </mxCell>
                <mxCell id="55" value="&lt;font color=&quot;#000000&quot;&gt;comment géré&lt;br&gt;la situation&lt;/font&gt;" style="rhombus;whiteSpace=wrap;html=1;fillColor=#1ba1e2;strokeColor=#006EAF;rounded=1;fontColor=#ffffff;" parent="1" vertex="1">
                    <mxGeometry x="-5" y="1690" width="160" height="160" as="geometry"/>
                </mxCell>
                <mxCell id="57" value="&lt;font color=&quot;#000000&quot;&gt;vous n'avez pas venger le garde, mais vous êtes encore en vie&amp;nbsp;&lt;br&gt;&lt;/font&gt;" style="rounded=1;whiteSpace=wrap;html=1;fillColor=#60a917;strokeColor=#2D7600;fontColor=#ffffff;" parent="1" vertex="1">
                    <mxGeometry x="240" y="1730" width="160" height="80" as="geometry"/>
                </mxCell>
                <mxCell id="64" style="edgeStyle=none;html=1;exitX=0.5;exitY=1;exitDx=0;exitDy=0;fontColor=#FFFFFF;" parent="1" source="60" target="63" edge="1">
                    <mxGeometry relative="1" as="geometry"/>
                </mxCell>
                <mxCell id="60" value="&lt;font color=&quot;#000000&quot;&gt;il vous lance le premier coup sur le torse&lt;br&gt;&lt;/font&gt;" style="rounded=1;whiteSpace=wrap;html=1;fillColor=#f9f7ed;strokeColor=#36393d;" parent="1" vertex="1">
                    <mxGeometry x="-5" y="1900" width="160" height="80" as="geometry"/>
                </mxCell>
                <mxCell id="66" style="edgeStyle=none;html=1;exitX=0.5;exitY=1;exitDx=0;exitDy=0;entryX=0.5;entryY=0;entryDx=0;entryDy=0;fontColor=#FFFFFF;" parent="1" source="63" target="65" edge="1">
                    <mxGeometry relative="1" as="geometry"/>
                </mxCell>
                <mxCell id="70" value="oui" style="edgeLabel;html=1;align=center;verticalAlign=middle;resizable=0;points=[];fontColor=#FFFFFF;" parent="66" vertex="1" connectable="0">
                    <mxGeometry x="0.1733" relative="1" as="geometry">
                        <mxPoint as="offset"/>
                    </mxGeometry>
                </mxCell>
                <mxCell id="68" style="edgeStyle=none;html=1;exitX=1;exitY=0.5;exitDx=0;exitDy=0;entryX=0;entryY=0.5;entryDx=0;entryDy=0;fontColor=#FFFFFF;" parent="1" source="63" target="67" edge="1">
                    <mxGeometry relative="1" as="geometry"/>
                </mxCell>
                <mxCell id="69" value="non" style="edgeLabel;html=1;align=center;verticalAlign=middle;resizable=0;points=[];fontColor=#FFFFFF;" parent="68" vertex="1" connectable="0">
                    <mxGeometry x="-0.228" y="-2" relative="1" as="geometry">
                        <mxPoint as="offset"/>
                    </mxGeometry>
                </mxCell>
                <mxCell id="63" value="&lt;font color=&quot;#000000&quot;&gt;avez-vous une armure&lt;/font&gt;" style="rhombus;whiteSpace=wrap;html=1;fillColor=#fa6800;strokeColor=#C73500;rounded=1;fontColor=#000000;" parent="1" vertex="1">
                    <mxGeometry x="-5" y="2030" width="160" height="160" as="geometry"/>
                </mxCell>
                <mxCell id="65" value="&lt;font color=&quot;#000000&quot;&gt;il se casse la main et commence à pleurer et il vous donne le meurtrier en échange de la paix&lt;br&gt;&lt;/font&gt;" style="rounded=1;whiteSpace=wrap;html=1;fillColor=#60a917;strokeColor=#2D7600;fontColor=#ffffff;" parent="1" vertex="1">
                    <mxGeometry x="-5" y="2240" width="160" height="80" as="geometry"/>
                </mxCell>
                <mxCell id="71" style="edgeStyle=none;html=1;exitX=1;exitY=0.5;exitDx=0;exitDy=0;entryX=1;entryY=0.5;entryDx=0;entryDy=0;fontColor=#FFFFFF;" parent="1" source="67" target="2" edge="1">
                    <mxGeometry relative="1" as="geometry">
                        <Array as="points">
                            <mxPoint x="670" y="2110"/>
                            <mxPoint x="670" y="280"/>
                        </Array>
                    </mxGeometry>
                </mxCell>
                <mxCell id="67" value="&lt;font color=&quot;#000000&quot;&gt;votre torse se fracasse et vous mourez sur le coup&lt;br&gt;&lt;/font&gt;" style="rounded=1;whiteSpace=wrap;html=1;fillColor=#a20025;strokeColor=#6F0000;fontColor=#ffffff;" parent="1" vertex="1">
                    <mxGeometry x="240" y="2070" width="160" height="80" as="geometry"/>
                </mxCell>
                <mxCell id="76" style="edgeStyle=orthogonalEdgeStyle;html=1;fontColor=#714141;" edge="1" parent="1" source="75" target="20">
                    <mxGeometry relative="1" as="geometry"/>
                </mxCell>
                <mxCell id="75" value="&lt;span style=&quot;color: rgb(0, 0, 0);&quot;&gt;Voir garde sur le sol&lt;/span&gt;&lt;br style=&quot;color: rgb(0, 0, 0);&quot;&gt;&lt;span style=&quot;color: rgb(0, 0, 0);&quot;&gt;Chercher des indices&lt;/span&gt;&lt;font color=&quot;#000000&quot;&gt;&lt;br&gt;&lt;/font&gt;" style="rounded=1;whiteSpace=wrap;html=1;fillColor=#f9f7ed;strokeColor=#36393d;" vertex="1" parent="1">
                    <mxGeometry x="-5" y="410" width="160" height="80" as="geometry"/>
                </mxCell>
            </root>
        </mxGraphModel>
    </diagram>
</mxfile>